<svg id="Layer_1" data-name="Layer 1" xmlns="http://www.w3.org/2000/svg" viewBox="0 0 40 40">
  <defs>
    <style>
      .cls-1 {
        fill: #888;
      }
    </style>
  </defs>
  <g>
    <path class="cls-1" d="M23.18,17.74c-.23-.14-.23-.22-.1-.43a3.35,3.35,0,0,0,.41-2.07,3.45,3.45,0,0,0-2.55-2.93,3.47,3.47,0,0,0-4,5c.14.29.08.37-.15.51a5.64,5.64,0,0,0-2.56,4.78c0,1.05,0,2.09,0,3.16,0,.28.08.35.37.35,1.8,0,3.61,0,5.41,0s3.65,0,5.48,0c.24,0,.32-.07.3-.31V22.64A5.66,5.66,0,0,0,23.18,17.74ZM20,14.5a1.16,1.16,0,1,1-1.17,1.13A1.22,1.22,0,0,1,20,14.5Zm3.1,9.25c-1.05,0-2.07,0-3.12,0s-2,0-3,0c-.37,0-.43-.1-.43-.45a6.21,6.21,0,0,1,.2-1.81,3.46,3.46,0,0,1,6.73,1c0,.31,0,.59,0,.88S23.45,23.75,23.14,23.75Zm0-6c-.23-.14-.23-.22-.1-.43a3.35,3.35,0,0,0,.41-2.07,3.45,3.45,0,0,0-2.55-2.93,3.47,3.47,0,0,0-4,5c.14.29.08.37-.15.51a5.64,5.64,0,0,0-2.56,4.78c0,1.05,0,2.09,0,3.16,0,.28.08.35.37.35,1.8,0,3.61,0,5.41,0s3.65,0,5.48,0c.24,0,.32-.07.3-.31V22.64A5.66,5.66,0,0,0,23.18,17.74ZM20,14.5a1.16,1.16,0,1,1-1.17,1.13A1.22,1.22,0,0,1,20,14.5Zm3.1,9.25c-1.05,0-2.07,0-3.12,0s-2,0-3,0c-.37,0-.43-.1-.43-.45a6.21,6.21,0,0,1,.2-1.81,3.46,3.46,0,0,1,6.73,1c0,.31,0,.59,0,.88S23.45,23.75,23.14,23.75Zm0-6c-.23-.14-.23-.22-.1-.43a3.35,3.35,0,0,0,.41-2.07,3.45,3.45,0,0,0-2.55-2.93,3.47,3.47,0,0,0-4,5c.14.29.08.37-.15.51a5.64,5.64,0,0,0-2.56,4.78c0,1.05,0,2.09,0,3.16,0,.28.08.35.37.35,1.8,0,3.61,0,5.41,0s3.65,0,5.48,0c.24,0,.32-.07.3-.31V22.64A5.66,5.66,0,0,0,23.18,17.74ZM20,14.5a1.16,1.16,0,1,1-1.17,1.13A1.22,1.22,0,0,1,20,14.5Zm3.1,9.25c-1.05,0-2.07,0-3.12,0s-2,0-3,0c-.37,0-.43-.1-.43-.45a6.21,6.21,0,0,1,.2-1.81,3.46,3.46,0,0,1,6.73,1c0,.31,0,.59,0,.88S23.45,23.75,23.14,23.75Zm0-6c-.23-.14-.23-.22-.1-.43a3.35,3.35,0,0,0,.41-2.07,3.45,3.45,0,0,0-2.55-2.93,3.47,3.47,0,0,0-4,5c.14.29.08.37-.15.51a5.64,5.64,0,0,0-2.56,4.78c0,1.05,0,2.09,0,3.16,0,.28.08.35.37.35,1.8,0,3.61,0,5.41,0s3.65,0,5.48,0c.24,0,.32-.07.3-.31V22.64A5.66,5.66,0,0,0,23.18,17.74ZM20,14.5a1.16,1.16,0,1,1-1.17,1.13A1.22,1.22,0,0,1,20,14.5Zm3.1,9.25c-1.05,0-2.07,0-3.12,0s-2,0-3,0c-.37,0-.43-.1-.43-.45a6.21,6.21,0,0,1,.2-1.81,3.46,3.46,0,0,1,6.73,1c0,.31,0,.59,0,.88S23.45,23.75,23.14,23.75Zm0-6c-.23-.14-.23-.22-.1-.43a3.35,3.35,0,0,0,.41-2.07,3.45,3.45,0,0,0-2.55-2.93,3.47,3.47,0,0,0-4,5c.14.29.08.37-.15.51a5.64,5.64,0,0,0-2.56,4.78c0,1.05,0,2.09,0,3.16,0,.28.08.35.37.35,1.8,0,3.61,0,5.41,0s3.65,0,5.48,0c.24,0,.32-.07.3-.31V22.64A5.66,5.66,0,0,0,23.18,17.74ZM20,14.5a1.16,1.16,0,1,1-1.17,1.13A1.22,1.22,0,0,1,20,14.5Zm3.1,9.25c-1.05,0-2.07,0-3.12,0s-2,0-3,0c-.37,0-.43-.1-.43-.45a6.21,6.21,0,0,1,.2-1.81,3.46,3.46,0,0,1,6.73,1c0,.31,0,.59,0,.88S23.45,23.75,23.14,23.75Z"/>
    <path class="cls-1" d="M39.64,17.13a18.19,18.19,0,0,0-1.7-5.68A19.82,19.82,0,0,0,23.59.46c-.7-.14-1.4-.12-2.09-.21H19.32a.51.51,0,0,1-.45,0h-.39c-.43.09-.88,0-1.33.11a18.27,18.27,0,0,0-5.68,1.7A19.79,19.79,0,0,0,4.65,7.45,20.1,20.1,0,0,0,1.1,14a21,21,0,0,0-.76,8.1,17.28,17.28,0,0,0,1.8,6.44,19.87,19.87,0,0,0,5.4,6.8A20.25,20.25,0,0,0,14.36,39a21.07,21.07,0,0,0,7.81.68A17.94,17.94,0,0,0,30.27,37a19.8,19.8,0,0,0,5.05-4.34,19.55,19.55,0,0,0,4.32-9.76c.06-.43,0-.84.1-1.27v-.76a.83.83,0,0,1,0-.54v-.63a.8.8,0,0,1,0-.53v-.7C39.68,18,39.7,17.56,39.64,17.13ZM27.67,9C28.33,7.94,29,6.84,29.6,5.71c.1-.17.16-.15.3,0a17.67,17.67,0,0,1,4.45,4.43.87.87,0,0,0,.08.14c0,.12-.1.12-.16.16-1.11.64-2.21,1.27-3.32,1.93-.14.08-.21.06-.31-.06a12.47,12.47,0,0,0-2.89-2.91C27.61,9.25,27.59,9.19,27.67,9Zm3.16,11A10.8,10.8,0,1,1,20,9.17,10.79,10.79,0,0,1,30.83,20ZM12.72,4.17a17.45,17.45,0,0,1,14.64,0c.25.1.35.19.17.47-.62,1-1.21,2.05-1.79,3.1-.12.22-.22.29-.49.18a13,13,0,0,0-10.46,0c-.22.11-.32.08-.45-.14-.57-1-1.17-2.07-1.78-3.08C12.37,4.42,12.42,4.31,12.72,4.17Zm-7,5.93a17.84,17.84,0,0,1,4.45-4.43c.1-.09.18-.17.29,0,.65,1.13,1.31,2.25,2,3.38l.06.12c0,.09-.09.11-.13.15A13.35,13.35,0,0,0,9.4,12.27c-.1.14-.16.12-.29.06C8,11.67,6.9,11,5.79,10.4,5.61,10.32,5.61,10.24,5.71,10.1ZM4.26,27.32A17.85,17.85,0,0,1,2.64,20a17.22,17.22,0,0,1,1.62-7.32c.1-.25.18-.35.47-.17,1,.62,2.07,1.21,3.13,1.81.23.12.23.24.13.47A13,13,0,0,0,8,25.18c.1.25.1.35-.17.5-1,.57-2.05,1.17-3.07,1.78C4.48,27.62,4.38,27.58,4.26,27.32Zm8.11,3.58c-.63,1.09-1.27,2.2-1.88,3.29-.1.18-.17.2-.35.08a17.77,17.77,0,0,1-4.41-4.41c-.1-.14-.14-.23.06-.33,1.11-.63,2.2-1.27,3.3-1.91l.17-.08c.1,0,.1.08.14.15a13.75,13.75,0,0,0,2.91,2.89C12.46,30.68,12.46,30.76,12.37,30.9Zm15.05,4.82a17.43,17.43,0,0,1-14.72,0c-.26-.12-.33-.2-.16-.51.63-1,1.23-2.07,1.8-3.12.13-.18.21-.22.43-.14a12.78,12.78,0,0,0,10.52,0c.23-.08.31,0,.43.14.6,1.09,1.21,2.14,1.83,3.2C27.69,35.54,27.63,35.62,27.42,35.72Zm6.89-5.84a17.36,17.36,0,0,1-4.37,4.39c-.18.12-.26.1-.36-.08C29,33.1,28.33,32,27.69,30.93c-.12-.21-.06-.27.1-.39a12.28,12.28,0,0,0,2.81-2.81c.12-.15.19-.23.39-.11,1.07.64,2.17,1.28,3.24,1.89.08,0,.18.06.2.19Zm1.5-2.56c-.12.24-.21.3-.47.14-1.05-.61-2.09-1.21-3.16-1.8-.19-.13-.23-.21-.14-.43a12.94,12.94,0,0,0,0-10.52c-.09-.23-.05-.31.14-.41,1.07-.62,2.11-1.21,3.16-1.83.26-.16.35-.1.47.15a17.48,17.48,0,0,1,0,14.7Z"/>
    <path class="cls-1" d="M23.18,17.74c-.23-.14-.23-.22-.1-.43a3.35,3.35,0,0,0,.41-2.07,3.45,3.45,0,0,0-2.55-2.93,3.47,3.47,0,0,0-4,5c.14.29.08.37-.15.51a5.64,5.64,0,0,0-2.56,4.78c0,1.05,0,2.09,0,3.16,0,.28.08.35.37.35,1.8,0,3.61,0,5.41,0s3.65,0,5.48,0c.24,0,.32-.07.3-.31V22.64A5.66,5.66,0,0,0,23.18,17.74ZM20,14.5a1.16,1.16,0,1,1-1.17,1.13A1.22,1.22,0,0,1,20,14.5Zm3.1,9.25c-1.05,0-2.07,0-3.12,0s-2,0-3,0c-.37,0-.43-.1-.43-.45a6.21,6.21,0,0,1,.2-1.81,3.46,3.46,0,0,1,6.73,1c0,.31,0,.59,0,.88S23.45,23.75,23.14,23.75Z"/>
    <path class="cls-1" d="M23.18,17.74c-.23-.14-.23-.22-.1-.43a3.35,3.35,0,0,0,.41-2.07,3.45,3.45,0,0,0-2.55-2.93,3.47,3.47,0,0,0-4,5c.14.29.08.37-.15.51a5.64,5.64,0,0,0-2.56,4.78c0,1.05,0,2.09,0,3.16,0,.28.08.35.37.35,1.8,0,3.61,0,5.41,0s3.65,0,5.48,0c.24,0,.32-.07.3-.31V22.64A5.66,5.66,0,0,0,23.18,17.74ZM20,14.5a1.16,1.16,0,1,1-1.17,1.13A1.22,1.22,0,0,1,20,14.5Zm3.1,9.25c-1.05,0-2.07,0-3.12,0s-2,0-3,0c-.37,0-.43-.1-.43-.45a6.21,6.21,0,0,1,.2-1.81,3.46,3.46,0,0,1,6.73,1c0,.31,0,.59,0,.88S23.45,23.75,23.14,23.75Z"/>
  </g>
</svg>
