<svg id="Layer_1" data-name="Layer 1" xmlns="http://www.w3.org/2000/svg" viewBox="0 0 40 40">
  <defs>
    <style>
      .cls-1 {
        fill: #888;
      }
    </style>
  </defs>
  <g>
    <path class="cls-1" d="M1.2,21.44a1.72,1.72,0,0,1,1.49-2C3.86,19.31,5,19.23,6.18,19A45.24,45.24,0,0,0,20,14.37,42.49,42.49,0,0,0,31.91,5a1.15,1.15,0,0,1,.16-.2,5.9,5.9,0,0,1-1-.07,1.76,1.76,0,0,1-1.33-1.89A1.76,1.76,0,0,1,31.33,1.2C32.9,1,34.47.79,36.05.59a1.8,1.8,0,0,1,2.13,1.9c0,1.53,0,3.06,0,4.59A1.85,1.85,0,0,1,36.63,9a1.82,1.82,0,0,1-2-1.61c-.1,0-.14.1-.18.14a46.22,46.22,0,0,1-6,5.63,1.2,1.2,0,0,1-.26.18.57.57,0,0,1-.69-.89c.43-.36.87-.73,1.32-1.09a46.14,46.14,0,0,0,5.8-5.81.78.78,0,0,1,.47-.36.58.58,0,0,1,.68.58c0,.45,0,.89,0,1.33a.67.67,0,0,0,.63.75c.38,0,.66-.28.66-.75V2.51c0-.59-.32-.83-.92-.75l-4.46.57c-.5.06-.81.34-.75.74s.41.59.89.51l1.43-.19c.3,0,.61,0,.79.31s0,.54-.2.78A43.09,43.09,0,0,1,23,14a46.26,46.26,0,0,1-12.53,5.33A41,41,0,0,1,3,20.58a.63.63,0,0,0-.62.56.6.6,0,0,0,.32.63,1,1,0,0,0,.48.06,29,29,0,0,0,4.44-.57A48.3,48.3,0,0,0,21.3,16.42a40.92,40.92,0,0,0,3.59-2.14,3.31,3.31,0,0,1,.29-.18.6.6,0,0,1,.86.14.56.56,0,0,1-.22.81c-.38.26-.79.53-1.17.77A48.59,48.59,0,0,1,9.12,22.11a39.61,39.61,0,0,1-6,.89A1.81,1.81,0,0,1,1.2,21.44Z"/>
    <path class="cls-1" d="M39.41,38.65a3.16,3.16,0,0,0-1.79-.26c-.69,0-1.37,0-2.06,0-.42,0-.5-.11-.52-.53V16.32c0-1-.1-1.07-1.07-1.07H29.13a3.77,3.77,0,0,0-.47,0c-.42,0-.56.18-.58.63V37.4c0,1,0,1-1,1h-2.7c-.83,0-.87,0-.87-.87V25.11c0-.74,0-1.49,0-2.23s-.18-.93-.91-.93c-1.71,0-3.44,0-5.16,0-.77,0-.95.2-.95,1q0,7.26,0,14.52c0,1,0,1-1,1H12.73c-.78,0-.82,0-.82-.83V26c0-.91-.13-1-1-1H5.75c-.6,0-.8.25-.8.85V37.7c0,.62-.08.69-.71.69H1.58a1.64,1.64,0,0,0-.44,0,.42.42,0,0,0-.31.68c0,.08.14.16.12.3-.26-.18-.46-.4-.34-.76s.4-.39.73-.39c1,0,2.05,0,3.08,0,.31,0,.41-.06.41-.4V25.78c0-.75.16-.91.9-.91h5.43c.72,0,.89.16.89.89,0,4,0,8.07,0,12.1,0,.32.06.42.4.42,1.17,0,2.36,0,3.53,0,.32,0,.38-.08.38-.4V22.8c0-.79.16-.95.95-.95h5.43c.7,0,.88.18.88.88q0,7.57,0,15.13c0,.34.08.42.43.42,1.17,0,2.34,0,3.53,0,.3,0,.38-.1.38-.4q0-10.86,0-21.68a1.32,1.32,0,0,1,0-.28c0-.57.18-.77.76-.77h5.57c.71,0,.89.18.89.87V37.86c0,.34.08.42.42.42,1,0,2,0,3.07,0A.8.8,0,0,1,39.41,38.65Z"/>
    <path class="cls-1" d="M38.65,38.26c-1,0-2,0-3.07,0-.34,0-.42-.08-.42-.42V16c0-.69-.18-.87-.89-.87H28.7c-.58,0-.76.2-.76.77a1.32,1.32,0,0,0,0,.28q0,10.83,0,21.68c0,.3-.08.4-.38.4-1.19,0-2.36,0-3.53,0-.35,0-.43-.08-.43-.42q0-7.56,0-15.13c0-.7-.18-.88-.88-.88H17.31c-.79,0-.95.16-.95.95V37.88c0,.32-.06.4-.38.4-1.17,0-2.36,0-3.53,0-.34,0-.4-.1-.4-.42,0-4,0-8.07,0-12.1,0-.73-.17-.89-.89-.89H5.73c-.74,0-.9.16-.9.91v12.1c0,.34-.1.4-.41.4-1,0-2,0-3.08,0-.33,0-.61,0-.73.39s.08.58.34.76H39a.52.52,0,0,0,.38-.38v-.38A.8.8,0,0,0,38.65,38.26ZM10.9,37.88c0,.3,0,.4-.37.4-1.43,0-2.84,0-4.25,0-.24,0-.32,0-.32-.3,0-3.87,0-7.72,0-11.59,0-.25.06-.33.32-.33,1.43,0,2.86,0,4.31,0,.25,0,.31.06.31.33Zm11.55-7.24c0,2.42,0,4.84,0,7.24,0,.34-.08.4-.4.4-1.39,0-2.8,0-4.2,0-.24,0-.32,0-.32-.3V23.3c0-.24.08-.3.3-.3,1.44,0,2.89,0,4.32,0,.28,0,.3.12.3.34C22.43,25.78,22.45,28.22,22.45,30.64ZM34,38c0,.22,0,.32-.3.32-1.42,0-2.85,0-4.28,0-.28,0-.36-.08-.34-.36V27.31c0-3.53,0-7.08,0-10.61,0-.32.1-.38.4-.38,1.41,0,2.8,0,4.22,0,.26,0,.34.06.32.32Z"/>
    <path class="cls-1" d="M39,39.41l.38-.38C39.48,39.35,39.35,39.48,39,39.41Z"/>
    <path class="cls-1" d="M38.2,7.08A1.85,1.85,0,0,1,36.63,9a1.82,1.82,0,0,1-2-1.61c-.1,0-.14.1-.18.14a46.22,46.22,0,0,1-6,5.63,1.2,1.2,0,0,1-.26.18.57.57,0,0,1-.69-.89c.43-.36.87-.73,1.32-1.09a46.14,46.14,0,0,0,5.8-5.81.78.78,0,0,1,.47-.36.58.58,0,0,1,.68.58c0,.45,0,.89,0,1.33a.67.67,0,0,0,.63.75c.38,0,.66-.28.66-.75V2.51c0-.59-.32-.83-.92-.75l-4.46.57c-.5.06-.81.34-.75.74s.41.59.89.51l1.43-.19c.3,0,.61,0,.79.31s0,.54-.2.78A43.09,43.09,0,0,1,23,14a46.26,46.26,0,0,1-12.53,5.33A41,41,0,0,1,3,20.58a.63.63,0,0,0-.62.56.6.6,0,0,0,.32.63,1,1,0,0,0,.48.06,29,29,0,0,0,4.44-.57A48.3,48.3,0,0,0,21.3,16.42a40.92,40.92,0,0,0,3.59-2.14,3.31,3.31,0,0,1,.29-.18.6.6,0,0,1,.86.14.56.56,0,0,1-.22.81c-.38.26-.79.53-1.17.77A48.59,48.59,0,0,1,9.12,22.11a39.61,39.61,0,0,1-6,.89A1.81,1.81,0,0,1,1.2,21.44a1.72,1.72,0,0,1,1.49-2C3.86,19.31,5,19.23,6.18,19A45.24,45.24,0,0,0,20,14.37,42.49,42.49,0,0,0,31.91,5a1.15,1.15,0,0,1,.16-.2,5.9,5.9,0,0,1-1-.07,1.76,1.76,0,0,1-1.33-1.89A1.76,1.76,0,0,1,31.33,1.2C32.9,1,34.47.79,36.05.59a1.8,1.8,0,0,1,2.13,1.9C38.2,4,38.16,5.55,38.2,7.08Z"/>
  </g>
</svg>
