<svg id="Layer_1" data-name="Layer 1" xmlns="http://www.w3.org/2000/svg" viewBox="0 0 40 40">
  <defs>
    <style>
      .cls-1 {
        fill: #888;
      }
    </style>
  </defs>
  <g>
    <path class="cls-1" d="M12,2.92A.78.78,0,0,1,11.81,2a.79.79,0,0,1,.71-.47,1.23,1.23,0,0,1,.63.32l3.11,3.11a.77.77,0,0,1,.08,1.17A.8.8,0,0,1,15.13,6C14.09,5,13.07,4,12,2.92Z"/>
    <path class="cls-1" d="M20,5.48V1a.77.77,0,0,1,.78-.86c.47,0,.76.34.76.89,0,.73,0,1.49,0,2.22s0,1.49,0,2.22a.77.77,0,0,1-.76.87A.78.78,0,0,1,20,5.48Z"/>
    <path class="cls-1" d="M25.46,6.16a.74.74,0,0,1,.24-.73c1.07-1.08,2.14-2.15,3.21-3.19a.73.73,0,0,1,.92-.19.78.78,0,0,1,.44.71.61.61,0,0,1-.13.39c-1.12,1.2-2.27,2.41-3.5,3.5A.74.74,0,0,1,25.46,6.16Z"/>
    <path class="cls-1" d="M30.85,14.1c0,3.3,0,6.59,0,9.89a28.9,28.9,0,0,1-1.41,8.18,2.53,2.53,0,0,0-.13.76c0,1.93,0,3.89,0,5.85a1.07,1.07,0,0,1-.55,1v0a2,2,0,0,0,.45-1.65c0-1.7,0-3.42,0-5.12a4.18,4.18,0,0,1,.16-1,31.48,31.48,0,0,0,1.26-6.22A42.41,42.41,0,0,0,30.74,21V14.16a3,3,0,0,0-3.19-3,2.76,2.76,0,0,0-1.1.29c-.44.18-.47.18-.7-.23A3,3,0,0,0,22.3,9.69a2.85,2.85,0,0,0-1.18.62.45.45,0,0,1-.68,0,2.93,2.93,0,0,0-4,0,.49.49,0,0,1-.71,0,3,3,0,0,0-4.94,2.28v3.84a1,1,0,0,1-.29.76,4.1,4.1,0,0,0-1.25,3.63,13.08,13.08,0,0,0,.91,4,12.39,12.39,0,0,0,3.92,5.33A3.23,3.23,0,0,1,15.47,33c-.05,1.83,0,3.66,0,5.49a1.28,1.28,0,0,0,.42,1.18c.05,0,0,.08,0,.13a1.07,1.07,0,0,1-.55-1c0-2,0-4,0-6a3,3,0,0,0-1.23-2.51A12.89,12.89,0,0,1,9.3,22a8.07,8.07,0,0,1-.07-2.64,3.69,3.69,0,0,1,1.25-2.22.64.64,0,0,0,.24-.53c0-1.3,0-2.59,0-3.89a3,3,0,0,1,1.56-2.8A2.75,2.75,0,0,1,15.5,10a.89.89,0,0,0,1.26,0,2.9,2.9,0,0,1,3.81.28c.19.16.26.13.42,0a3.06,3.06,0,0,1,4.92,1c.1.21.18.21.36.11A3.1,3.1,0,0,1,30.85,14.1Z"/>
    <path class="cls-1" d="M19.26,27a.75.75,0,0,0-.81.76.79.79,0,0,0,.74.78.75.75,0,0,0,.81-.76A.77.77,0,0,0,19.26,27Zm0,0a.75.75,0,0,0-.81.76.79.79,0,0,0,.74.78.75.75,0,0,0,.81-.76A.77.77,0,0,0,19.26,27Zm7-15.58c-.18.1-.26.1-.36-.11a3.06,3.06,0,0,0-4.92-1c-.16.13-.23.16-.42,0A2.9,2.9,0,0,0,16.76,10a.89.89,0,0,1-1.26,0,2.75,2.75,0,0,0-3.22-.16,3,3,0,0,0-1.56,2.8c0,1.3,0,2.59,0,3.89a.64.64,0,0,1-.24.53,3.69,3.69,0,0,0-1.25,2.22A8.07,8.07,0,0,0,9.3,22a12.89,12.89,0,0,0,4.84,8.34,3,3,0,0,1,1.23,2.51c0,2,0,4,0,6a1.07,1.07,0,0,0,.55,1H28.75a1.07,1.07,0,0,0,.55-1c0-2,0-3.92,0-5.85a2.53,2.53,0,0,1,.13-.76A28.9,28.9,0,0,0,30.82,24c.05-3.3,0-6.59,0-9.89A3.1,3.1,0,0,0,26.27,11.39Zm3,5.28c0,.83,0,1.67,0,2.48a1.55,1.55,0,0,1-1.05,1.52,1.51,1.51,0,0,1-1.72-.53,1.79,1.79,0,0,1-.32-1V14.21a1.58,1.58,0,0,1,1.55-1.65,1.6,1.6,0,0,1,1.56,1.65Zm-7.76-4a1.57,1.57,0,0,1,1.25-1.57,1.52,1.52,0,0,1,1.68.81,1.91,1.91,0,0,1,.18.87v4.86a1.55,1.55,0,0,1-2.93.76,1.78,1.78,0,0,1-.18-.79Zm-4.63-.08A1.54,1.54,0,0,1,18.45,11,1.56,1.56,0,0,1,20,12.59c0,.55,0,1.1,0,1.62v1.67c0,.19,0,.24-.24.24H17.15c-.19,0-.26,0-.26-.24C16.91,14.78,16.89,13.66,16.91,12.56Zm-4.63-.13A1.48,1.48,0,0,1,13.8,11a1.53,1.53,0,0,1,1.54,1.44c.06,1.15,0,2.32,0,3.47,0,.21-.13.19-.26.19h-2a2.38,2.38,0,0,0-.86.08C12.26,14.94,12.23,13.69,12.28,12.43ZM27.76,38c0,.21-.08.29-.29.29-3.42,0-6.87,0-10.3,0-.21,0-.28-.08-.28-.29,0-1,0-2,0-3,0-.26.07-.31.34-.31H27.42c.26,0,.34,0,.34.31C27.74,36,27.74,37,27.76,38Zm.16-6.3a2.34,2.34,0,0,0-.16,1.1c0,.31-.08.36-.36.36H17.83a6,6,0,0,0-.6,0c-.27,0-.34,0-.34-.31a4,4,0,0,0-.16-1.65,3.88,3.88,0,0,0-1.44-2A11.72,11.72,0,0,1,10.9,22a9.2,9.2,0,0,1-.18-1.9,2.31,2.31,0,0,1,2.38-2.38c2.24,0,4.49,0,6.79,0A3.87,3.87,0,0,1,16,20.77H14.66a.79.79,0,0,0-.86.76.77.77,0,0,0,.86.78,4,4,0,0,1,2.43.58,2.91,2.91,0,0,1,1.21,1.67c.13.42.26.81.78.86a.77.77,0,0,0,.81-1,4.53,4.53,0,0,0-1.3-2.31c-.21-.2-.21-.28.05-.41A5.1,5.1,0,0,0,20.57,20c.13-.21.21-.26.45-.06a3,3,0,0,0,3.53.48c.15-.08.26-.19.39.07A3,3,0,0,0,29.17,22l.11,0c0,.65,0,1.3,0,2A29.38,29.38,0,0,1,27.92,31.7ZM19.26,27a.75.75,0,0,0-.81.76.79.79,0,0,0,.74.78.75.75,0,0,0,.81-.76A.77.77,0,0,0,19.26,27Zm0,0a.75.75,0,0,0-.81.76.79.79,0,0,0,.74.78.75.75,0,0,0,.81-.76A.77.77,0,0,0,19.26,27Zm0,0a.75.75,0,0,0-.81.76.79.79,0,0,0,.74.78.75.75,0,0,0,.81-.76A.77.77,0,0,0,19.26,27Z"/>
    <path class="cls-1" d="M16.34,6.1A.8.8,0,0,1,15.13,6C14.09,5,13.07,4,12,2.92A.78.78,0,0,1,11.81,2a.79.79,0,0,1,.71-.47,1.23,1.23,0,0,1,.63.32l3.11,3.11A.77.77,0,0,1,16.34,6.1Z"/>
    <path class="cls-1" d="M30.27,2.76a.61.61,0,0,1-.13.39c-1.12,1.2-2.27,2.41-3.5,3.5a.74.74,0,0,1-1.18-.49.74.74,0,0,1,.24-.73c1.07-1.08,2.14-2.15,3.21-3.19a.73.73,0,0,1,.92-.19A.78.78,0,0,1,30.27,2.76Z"/>
    <path class="cls-1" d="M21.54,1.06c0,.73,0,1.49,0,2.22s0,1.49,0,2.22a.77.77,0,0,1-.76.87A.78.78,0,0,1,20,5.48V1a.77.77,0,0,1,.78-.86C21.25.17,21.54.51,21.54,1.06Z"/>
    <path class="cls-1" d="M20,27.75a.75.75,0,0,1-.81.76.79.79,0,0,1-.74-.78.75.75,0,0,1,.81-.76A.77.77,0,0,1,20,27.75Z"/>
    <path class="cls-1" d="M20,27.75a.75.75,0,0,1-.81.76.79.79,0,0,1-.74-.78.75.75,0,0,1,.81-.76A.77.77,0,0,1,20,27.75Z"/>
  </g>
</svg>
